<svg aria-label="Franjas de calentamiento global 1880-2025 (NASA GISTEMP)" width="1664" height="420" viewBox="0 0 1664 420" xmlns="http://www.w3.org/2000/svg"><rect x="0.00" y="0" width="12.00" height="420" fill="#4393c3"/><rect x="11.40" y="0" width="12.00" height="420" fill="#4393c3"/><rect x="22.79" y="0" width="12.00" height="420" fill="#4393c3"/><rect x="34.19" y="0" width="12.00" height="420" fill="#4393c3"/><rect x="45.59" y="0" width="12.00" height="420" fill="#2166ac"/><rect x="56.99" y="0" width="12.00" height="420" fill="#2166ac"/><rect x="68.38" y="0" width="12.00" height="420" fill="#2166ac"/><rect x="79.78" y="0" width="12.00" height="420" fill="#2166ac"/><rect x="91.18" y="0" width="12.00" height="420" fill="#4393c3"/><rect x="102.58" y="0" width="12.00" height="420" fill="#4393c3"/><rect x="113.97" y="0" width="12.00" height="420" fill="#2166ac"/><rect x="125.37" y="0" width="12.00" height="420" fill="#4393c3"/><rect x="136.77" y="0" width="12.00" height="420" fill="#2166ac"/><rect x="148.16" y="0" width="12.00" height="420" fill="#2166ac"/><rect x="159.56" y="0" width="12.00" height="420" fill="#2166ac"/><rect x="170.96" y="0" width="12.00" height="420" fill="#4393c3"/><rect x="182.36" y="0" width="12.00" height="420" fill="#4393c3"/><rect x="193.75" y="0" width="12.00" height="420" fill="#4393c3"/><rect x="205.15" y="0" width="12.00" height="420" fill="#2166ac"/><rect x="216.55" y="0" width="12.00" height="420" fill="#4393c3"/><rect x="227.95" y="0" width="12.00" height="420" fill="#4393c3"/><rect x="239.34" y="0" width="12.00" height="420" fill="#4393c3"/><rect x="250.74" y="0" width="12.00" height="420" fill="#2166ac"/><rect x="262.14" y="0" width="12.00" height="420" fill="#2166ac"/><rect x="273.53" y="0" width="12.00" height="420" fill="#053061"/><rect x="284.93" y="0" width="12.00" height="420" fill="#2166ac"/><rect x="296.33" y="0" width="12.00" height="420" fill="#4393c3"/><rect x="307.73" y="0" width="12.00" height="420" fill="#2166ac"/><rect x="319.12" y="0" width="12.00" height="420" fill="#053061"/><rect x="330.52" y="0" width="12.00" height="420" fill="#053061"/><rect x="341.92" y="0" width="12.00" height="420" fill="#053061"/><rect x="353.32" y="0" width="12.00" height="420" fill="#053061"/><rect x="364.71" y="0" width="12.00" height="420" fill="#2166ac"/><rect x="376.11" y="0" width="12.00" height="420" fill="#2166ac"/><rect x="387.51" y="0" width="12.00" height="420" fill="#4393c3"/><rect x="398.90" y="0" width="12.00" height="420" fill="#4393c3"/><rect x="410.30" y="0" width="12.00" height="420" fill="#2166ac"/><rect x="421.70" y="0" width="12.00" height="420" fill="#053061"/><rect x="433.10" y="0" width="12.00" height="420" fill="#2166ac"/><rect x="444.49" y="0" width="12.00" height="420" fill="#2166ac"/><rect x="455.89" y="0" width="12.00" height="420" fill="#2166ac"/><rect x="467.29" y="0" width="12.00" height="420" fill="#4393c3"/><rect x="478.68" y="0" width="12.00" height="420" fill="#2166ac"/><rect x="490.08" y="0" width="12.00" height="420" fill="#2166ac"/><rect x="501.48" y="0" width="12.00" height="420" fill="#2166ac"/><rect x="512.88" y="0" width="12.00" height="420" fill="#4393c3"/><rect x="524.27" y="0" width="12.00" height="420" fill="#4393c3"/><rect x="535.67" y="0" width="12.00" height="420" fill="#4393c3"/><rect x="547.07" y="0" width="12.00" height="420" fill="#4393c3"/><rect x="558.47" y="0" width="12.00" height="420" fill="#2166ac"/><rect x="569.86" y="0" width="12.00" height="420" fill="#4393c3"/><rect x="581.26" y="0" width="12.00" height="420" fill="#4393c3"/><rect x="592.66" y="0" width="12.00" height="420" fill="#4393c3"/><rect x="604.05" y="0" width="12.00" height="420" fill="#2166ac"/><rect x="615.45" y="0" width="12.00" height="420" fill="#4393c3"/><rect x="626.85" y="0" width="12.00" height="420" fill="#4393c3"/><rect x="638.25" y="0" width="12.00" height="420" fill="#4393c3"/><rect x="649.64" y="0" width="12.00" height="420" fill="#92c5de"/><rect x="661.04" y="0" width="12.00" height="420" fill="#92c5de"/><rect x="672.44" y="0" width="12.00" height="420" fill="#92c5de"/><rect x="683.84" y="0" width="12.00" height="420" fill="#d1e5f0"/><rect x="695.23" y="0" width="12.00" height="420" fill="#d1e5f0"/><rect x="706.63" y="0" width="12.00" height="420" fill="#92c5de"/><rect x="718.03" y="0" width="12.00" height="420" fill="#92c5de"/><rect x="729.42" y="0" width="12.00" height="420" fill="#d1e5f0"/><rect x="740.82" y="0" width="12.00" height="420" fill="#92c5de"/><rect x="752.22" y="0" width="12.00" height="420" fill="#4393c3"/><rect x="763.62" y="0" width="12.00" height="420" fill="#92c5de"/><rect x="775.01" y="0" width="12.00" height="420" fill="#4393c3"/><rect x="786.41" y="0" width="12.00" height="420" fill="#4393c3"/><rect x="797.81" y="0" width="12.00" height="420" fill="#4393c3"/><rect x="809.21" y="0" width="12.00" height="420" fill="#4393c3"/><rect x="820.60" y="0" width="12.00" height="420" fill="#92c5de"/><rect x="832.00" y="0" width="12.00" height="420" fill="#92c5de"/><rect x="843.40" y="0" width="12.00" height="420" fill="#4393c3"/><rect x="854.79" y="0" width="12.00" height="420" fill="#4393c3"/><rect x="866.19" y="0" width="12.00" height="420" fill="#4393c3"/><rect x="877.59" y="0" width="12.00" height="420" fill="#92c5de"/><rect x="888.99" y="0" width="12.00" height="420" fill="#92c5de"/><rect x="900.38" y="0" width="12.00" height="420" fill="#92c5de"/><rect x="911.78" y="0" width="12.00" height="420" fill="#92c5de"/><rect x="923.18" y="0" width="12.00" height="420" fill="#92c5de"/><rect x="934.58" y="0" width="12.00" height="420" fill="#92c5de"/><rect x="945.97" y="0" width="12.00" height="420" fill="#92c5de"/><rect x="957.37" y="0" width="12.00" height="420" fill="#4393c3"/><rect x="968.77" y="0" width="12.00" height="420" fill="#4393c3"/><rect x="980.16" y="0" width="12.00" height="420" fill="#92c5de"/><rect x="991.56" y="0" width="12.00" height="420" fill="#92c5de"/><rect x="1002.96" y="0" width="12.00" height="420" fill="#4393c3"/><rect x="1014.36" y="0" width="12.00" height="420" fill="#92c5de"/><rect x="1025.75" y="0" width="12.00" height="420" fill="#92c5de"/><rect x="1037.15" y="0" width="12.00" height="420" fill="#4393c3"/><rect x="1048.55" y="0" width="12.00" height="420" fill="#92c5de"/><rect x="1059.95" y="0" width="12.00" height="420" fill="#d1e5f0"/><rect x="1071.34" y="0" width="12.00" height="420" fill="#4393c3"/><rect x="1082.74" y="0" width="12.00" height="420" fill="#92c5de"/><rect x="1094.14" y="0" width="12.00" height="420" fill="#4393c3"/><rect x="1105.53" y="0" width="12.00" height="420" fill="#d1e5f0"/><rect x="1116.93" y="0" width="12.00" height="420" fill="#92c5de"/><rect x="1128.33" y="0" width="12.00" height="420" fill="#d1e5f0"/><rect x="1139.73" y="0" width="12.00" height="420" fill="#d1e5f0"/><rect x="1151.12" y="0" width="12.00" height="420" fill="#fddbc7"/><rect x="1162.52" y="0" width="12.00" height="420" fill="#d1e5f0"/><rect x="1173.92" y="0" width="12.00" height="420" fill="#fddbc7"/><rect x="1185.32" y="0" width="12.00" height="420" fill="#d1e5f0"/><rect x="1196.71" y="0" width="12.00" height="420" fill="#d1e5f0"/><rect x="1208.11" y="0" width="12.00" height="420" fill="#d1e5f0"/><rect x="1219.51" y="0" width="12.00" height="420" fill="#fddbc7"/><rect x="1230.90" y="0" width="12.00" height="420" fill="#fddbc7"/><rect x="1242.30" y="0" width="12.00" height="420" fill="#d1e5f0"/><rect x="1253.70" y="0" width="12.00" height="420" fill="#fddbc7"/><rect x="1265.10" y="0" width="12.00" height="420" fill="#fddbc7"/><rect x="1276.49" y="0" width="12.00" height="420" fill="#d1e5f0"/><rect x="1287.89" y="0" width="12.00" height="420" fill="#d1e5f0"/><rect x="1299.29" y="0" width="12.00" height="420" fill="#fddbc7"/><rect x="1310.68" y="0" width="12.00" height="420" fill="#fddbc7"/><rect x="1322.08" y="0" width="12.00" height="420" fill="#fddbc7"/><rect x="1333.48" y="0" width="12.00" height="420" fill="#fddbc7"/><rect x="1344.88" y="0" width="12.00" height="420" fill="#f4a582"/><rect x="1356.27" y="0" width="12.00" height="420" fill="#fddbc7"/><rect x="1367.67" y="0" width="12.00" height="420" fill="#fddbc7"/><rect x="1379.07" y="0" width="12.00" height="420" fill="#f4a582"/><rect x="1390.47" y="0" width="12.00" height="420" fill="#f4a582"/><rect x="1401.86" y="0" width="12.00" height="420" fill="#f4a582"/><rect x="1413.26" y="0" width="12.00" height="420" fill="#f4a582"/><rect x="1424.66" y="0" width="12.00" height="420" fill="#d6604d"/><rect x="1436.05" y="0" width="12.00" height="420" fill="#f4a582"/><rect x="1447.45" y="0" width="12.00" height="420" fill="#d6604d"/><rect x="1458.85" y="0" width="12.00" height="420" fill="#f4a582"/><rect x="1470.25" y="0" width="12.00" height="420" fill="#d6604d"/><rect x="1481.64" y="0" width="12.00" height="420" fill="#d6604d"/><rect x="1493.04" y="0" width="12.00" height="420" fill="#f4a582"/><rect x="1504.44" y="0" width="12.00" height="420" fill="#f4a582"/><rect x="1515.84" y="0" width="12.00" height="420" fill="#d6604d"/><rect x="1527.23" y="0" width="12.00" height="420" fill="#d6604d"/><rect x="1538.63" y="0" width="12.00" height="420" fill="#b2182b"/><rect x="1550.03" y="0" width="12.00" height="420" fill="#b2182b"/><rect x="1561.42" y="0" width="12.00" height="420" fill="#b2182b"/><rect x="1572.82" y="0" width="12.00" height="420" fill="#b2182b"/><rect x="1584.22" y="0" width="12.00" height="420" fill="#b2182b"/><rect x="1595.62" y="0" width="12.00" height="420" fill="#b2182b"/><rect x="1607.01" y="0" width="12.00" height="420" fill="#b2182b"/><rect x="1618.41" y="0" width="12.00" height="420" fill="#b2182b"/><rect x="1629.81" y="0" width="12.00" height="420" fill="#67001f"/><rect x="1641.21" y="0" width="12.00" height="420" fill="#67001f"/><rect x="1652.60" y="0" width="12.00" height="420" fill="#67001f"/></svg>